<svg width="41" height="41" viewBox="0 0 41 41" fill="none" xmlns="http://www.w3.org/2000/svg">
<g clip-path="url(#clip0_185_9903)">
<path d="M2.16666 12.8335V29.8335C2.16666 31.0165 2.59466 32.0885 3.28166 32.9455L15.0467 23.5675L2.16666 12.8335Z" fill="#D0D5DA"/>
<path d="M38.0516 32.9455C38.7386 32.0895 39.1667 31.0165 39.1667 29.8335V12.8335L26.2867 23.5665L38.0516 32.9455Z" fill="#D0D5DA"/>
<path d="M28.2547 20.7375L22.6117 26.2275C23.1197 26.0315 23.6137 25.7685 24.0707 25.4135L26.2867 23.5665L39.1667 12.8335L28.5147 20.1725C28.4357 20.3605 28.3547 20.5485 28.2547 20.7375Z" fill="#AFB7C0"/>
<path d="M17.1457 25.3155C15.6267 24.0645 13.9937 22.4595 13.0787 20.7365C12.9787 20.5485 12.8977 20.3595 12.8187 20.1715L2.16666 12.8335L15.0467 23.5665L17.1457 25.3155Z" fill="#AFB7C0"/>
<path d="M24.0707 25.4134C23.6137 25.7674 23.1197 26.0304 22.6117 26.2274L21.5147 27.2944C20.9987 27.6354 20.3337 27.6354 19.8177 27.2944C19.1557 26.8574 18.1757 26.1654 17.1447 25.3154L15.0457 23.5664L3.28065 32.9444C4.19665 34.0864 5.58765 34.8324 7.16565 34.8324H34.1657C35.7437 34.8324 37.1347 34.0864 38.0507 32.9444L26.2857 23.5664L24.0707 25.4134Z" fill="#E5E9EE"/>
<path d="M34.1667 5.8335H7.16666C4.40566 5.8335 2.16666 8.0725 2.16666 10.8335V12.8335L12.8187 20.1725C11.2977 16.5555 13.5877 13.1165 16.5757 13.1165C18.3677 13.1165 19.4467 14.0525 20.0427 14.8575C20.3567 15.2815 20.9777 15.2815 21.2917 14.8575C21.8877 14.0525 22.9667 13.1165 24.7587 13.1165C27.7467 13.1165 30.0357 16.5555 28.5157 20.1725L39.1677 12.8335V10.8335C39.1677 8.0725 36.9277 5.8335 34.1667 5.8335Z" fill="#E5E9EE"/>
<path d="M13.0787 20.7377C13.9937 22.4597 15.6267 24.0647 17.1457 25.3167C18.1767 26.1667 19.1567 26.8577 19.8187 27.2957C20.3347 27.6367 20.9997 27.6367 21.5157 27.2957L22.6127 26.2287L28.2557 20.7387C28.3557 20.5507 28.4367 20.3617 28.5157 20.1737C30.0367 16.5567 27.7467 13.1177 24.7587 13.1177C22.9667 13.1177 21.8877 14.0537 21.2917 14.8587C20.9777 15.2827 20.3567 15.2827 20.0427 14.8587C19.4467 14.0537 18.3677 13.1177 16.5757 13.1177C13.5877 13.1177 11.2987 16.5567 12.8187 20.1737C12.8977 20.3617 12.9787 20.5497 13.0787 20.7387V20.7377Z" fill="#EC4452"/>
</g>
<defs>
<clipPath id="clip0_185_9903">
<rect width="40" height="40" fill="white" transform="translate(0.666656 0.333496)"/>
</clipPath>
</defs>
</svg>
