<svg width="40" height="40" viewBox="0 0 40 40" fill="none" xmlns="http://www.w3.org/2000/svg">
<g clip-path="url(#clip0_124_10013)">
<path d="M31.104 8.08984H5.5C3.291 8.08984 1.5 9.88084 1.5 12.0898V27.9098C1.5 30.1188 3.291 31.9098 5.5 31.9098H31.104C33.313 31.9098 35.104 30.1188 35.104 27.9098V12.0898C35.104 9.88084 33.313 8.08984 31.104 8.08984ZM32.699 28.0058C32.699 28.8338 32.027 29.5058 31.199 29.5058H5.405C4.577 29.5058 3.905 28.8338 3.905 28.0058V11.9948C3.905 11.1668 4.577 10.4948 5.405 10.4948H31.199C32.027 10.4948 32.699 11.1668 32.699 11.9948V28.0058Z" fill="#6D7680"/>
<path d="M9.70312 10.4951L9.70313 29.5061H5.40512C4.57712 29.5061 3.90512 28.8341 3.90512 28.0061L3.90512 11.9951C3.90512 11.1671 4.57712 10.4951 5.40512 10.4951H9.70312Z" fill="#FBBC05"/>
<path d="M12.7979 10.4951L12.7979 29.5061H8.49985C7.67185 29.5061 6.99985 28.8341 6.99985 28.0061L6.99985 11.9951C6.99985 11.1671 7.67185 10.4951 8.49985 10.4951H12.7979Z" fill="#FBBC05"/>
<path d="M15.7979 10.4951L15.7979 29.5061H11.4999C10.6719 29.5061 9.99985 28.8341 9.99985 28.0061V11.9951C9.99985 11.1671 10.6719 10.4951 11.4999 10.4951H15.7979Z" fill="#FBBC05"/>
<path d="M18.7979 10.4951V29.5061H14.4999C13.6719 29.5061 12.9999 28.8341 12.9999 28.0061V11.9951C12.9999 11.1671 13.6719 10.4951 14.4999 10.4951H18.7979Z" fill="#FBBC05"/>
<path d="M21.7979 10.4951V29.5061H17.4999C16.6719 29.5061 15.9999 28.8341 15.9999 28.0061V11.9951C15.9999 11.1671 16.6719 10.4951 17.4999 10.4951H21.7979Z" fill="#FBBC05"/>
<path d="M36.5 24.2793H35.104V15.7223H36.5C37.604 15.7223 38.5 16.6183 38.5 17.7223V22.2793C38.5 23.3833 37.604 24.2793 36.5 24.2793Z" fill="#505967"/>
</g>
<defs>
<clipPath id="clip0_124_10013">
<rect width="40" height="40" fill="white"/>
</clipPath>
</defs>
</svg>
