<svg width="40" height="40" viewBox="0 0 40 40" fill="none" xmlns="http://www.w3.org/2000/svg">
<g clip-path="url(#clip0_124_10007)">
<path d="M31.0679 8.08984H5.46387C3.25487 8.08984 1.46387 9.88084 1.46387 12.0898V27.9098C1.46387 30.1188 3.25487 31.9098 5.46387 31.9098H31.0679C33.2769 31.9098 35.0679 30.1188 35.0679 27.9098V12.0898C35.0679 9.88084 33.2769 8.08984 31.0679 8.08984ZM32.6629 28.0058C32.6629 28.8338 31.9909 29.5058 31.1629 29.5058H5.36887C4.54087 29.5058 3.86887 28.8338 3.86887 28.0058V11.9948C3.86887 11.1668 4.54087 10.4948 5.36887 10.4948H31.1629C31.9909 10.4948 32.6629 11.1668 32.6629 11.9948V28.0058Z" fill="#6B7683"/>
<path d="M36.4639 24.2793H35.0679V15.7223H36.4639C37.5679 15.7223 38.4639 16.6183 38.4639 17.7223V22.2793C38.4639 23.3833 37.5679 24.2793 36.4639 24.2793Z" fill="#4E5968"/>
<path d="M27.0049 10.4941V29.5051H5.40488C4.57688 29.5051 3.90488 28.8331 3.90488 28.0051V11.9941C3.90488 11.1661 4.57688 10.4941 5.40488 10.4941L27.0049 10.4941Z" fill="#7BD58F"/>
</g>
<defs>
<clipPath id="clip0_124_10007">
<rect width="40" height="40" fill="white"/>
</clipPath>
</defs>
</svg>
