<svg width="217" height="315" viewBox="0 0 217 315" fill="none" xmlns="http://www.w3.org/2000/svg">
<path d="M190 87C190 142.228 153.287 187 108 187C62.7127 187 26 142.228 26 87C26 31.7715 62.7127 0.5 108 0.5C153.287 0.5 190 31.7715 190 87Z" fill="#FFEACC"/>
<path d="M0 242.5C0 226.76 12.7599 214 28.5 214V214C44.2401 214 57 226.76 57 242.5V315H0V242.5Z" fill="#D9D9D9"/>
<path d="M160 242.5C160 226.76 172.76 214 188.5 214V214C204.24 214 217 226.76 217 242.5V315H160V242.5Z" fill="#D9D9D9"/>
<path d="M13 224.423C13 218.444 17.4007 213.378 23.3204 212.541L106.82 200.737C107.935 200.58 109.065 200.58 110.18 200.737L193.68 212.541C199.599 213.378 204 218.444 204 224.423V303C204 309.627 198.627 315 192 315H25C18.3726 315 13 309.627 13 303V224.423Z" fill="#D9D9D9"/>
<rect x="16" y="108" width="31" height="18" rx="9" transform="rotate(-90 16 108)" fill="#FFEACC"/>
<rect x="183" y="108" width="31" height="18" rx="9" transform="rotate(-90 183 108)" fill="#FFEACC"/>
<rect x="80" y="150" width="57" height="74" rx="28.5" fill="#FFEACC"/>
<path d="M164 31.4923C164 42.8099 139.152 48 108.5 48C77.8482 48 53 42.8099 53 31.4923C53 20.1747 77.8482 11 108.5 11C139.152 11 164 20.1747 164 31.4923Z" fill="#3C3C3C"/>
<path fill-rule="evenodd" clip-rule="evenodd" d="M26 83.3593C42.2126 57.5911 73.0675 39 107.946 39C144.027 39 174.816 58.8961 189.942 86.0516C189.524 31.4136 152.974 0.5 107.946 0.5C63.6635 0.5 27.5794 30.3993 26 83.3593Z" fill="#3C3C3C"/>
<path d="M53 1H98C121.196 1 140 19.804 140 43V43H95C71.804 43 53 24.196 53 1V1Z" fill="#3C3C3C"/>
</svg>
