<svg width="217" height="315" viewBox="0 0 217 315" fill="none" xmlns="http://www.w3.org/2000/svg">
<path d="M190 87C190 142.228 153.287 187 108 187C62.7127 187 26 142.228 26 87C26 31.7715 62.7127 0.5 108 0.5C153.287 0.5 190 31.7715 190 87Z" fill="#FFEACC"/>
<rect x="16" y="108" width="31" height="18" rx="9" transform="rotate(-90 16 108)" fill="#FFEACC"/>
<rect x="183" y="108" width="31" height="18" rx="9" transform="rotate(-90 183 108)" fill="#FFEACC"/>
<rect x="80" y="150" width="57" height="74" rx="28.5" fill="#FFEACC"/>
<path d="M164 31.4923C164 42.8099 139.152 48 108.5 48C77.8482 48 53 42.8099 53 31.4923C53 20.1747 77.8482 11 108.5 11C139.152 11 164 20.1747 164 31.4923Z" fill="#3C3C3C"/>
<path fill-rule="evenodd" clip-rule="evenodd" d="M26 83.3593C42.2126 57.5911 73.0675 39 107.946 39C144.027 39 174.816 58.8961 189.942 86.0515C189.524 31.4136 152.974 0.5 107.946 0.5C63.6635 0.5 27.5794 30.3993 26 83.3593Z" fill="#3C3C3C"/>
<path d="M53 1H98C121.196 1 140 19.804 140 43V43H95C71.804 43 53 24.196 53 1V1Z" fill="#3C3C3C"/>
<mask id="path-8-inside-1_123_10000" fill="white">
<path fill-rule="evenodd" clip-rule="evenodd" d="M25 314.804H12C5.37258 314.804 0 309.431 0 302.804V225.804C0 219.176 5.37258 213.804 12 213.804H18.7832C20.0862 213.014 21.5576 212.463 23.1421 212.214L77.8246 203.645C79.2629 203.419 80.7301 203.457 82.1547 203.757L106.028 208.783C107.658 209.127 109.342 209.127 110.972 208.783L134.845 203.757C136.27 203.457 137.737 203.419 139.175 203.645L193.858 212.214C195.442 212.463 196.914 213.014 198.217 213.804H205C211.627 213.804 217 219.176 217 225.804V302.804C217 309.431 211.627 314.804 205 314.804H192H172H45H25Z"/>
</mask>
<path fill-rule="evenodd" clip-rule="evenodd" d="M25 314.804H12C5.37258 314.804 0 309.431 0 302.804V225.804C0 219.176 5.37258 213.804 12 213.804H18.7832C20.0862 213.014 21.5576 212.463 23.1421 212.214L77.8246 203.645C79.2629 203.419 80.7301 203.457 82.1547 203.757L106.028 208.783C107.658 209.127 109.342 209.127 110.972 208.783L134.845 203.757C136.27 203.457 137.737 203.419 139.175 203.645L193.858 212.214C195.442 212.463 196.914 213.014 198.217 213.804H205C211.627 213.804 217 219.176 217 225.804V302.804C217 309.431 211.627 314.804 205 314.804H192H172H45H25Z" fill="white"/>
<path d="M18.7832 213.804V214.804H19.0626L19.3015 214.659L18.7832 213.804ZM23.1421 212.214L23.2969 213.202L23.1421 212.214ZM77.8246 203.645L77.9795 204.633L77.9795 204.633L77.8246 203.645ZM82.1547 203.757L82.3607 202.779L82.3607 202.779L82.1547 203.757ZM106.028 208.783L106.234 207.805L106.234 207.805L106.028 208.783ZM110.972 208.783L110.766 207.805L110.766 207.805L110.972 208.783ZM134.845 203.757L135.051 204.736L135.051 204.736L134.845 203.757ZM139.175 203.645L139.33 202.657L139.33 202.657L139.175 203.645ZM193.858 212.214L194.013 211.226L194.013 211.226L193.858 212.214ZM198.217 213.804L197.699 214.659L197.937 214.804H198.217V213.804ZM12 315.804H25V313.804H12V315.804ZM-1 302.804C-1 309.983 4.8203 315.804 12 315.804V313.804C5.92487 313.804 1 308.879 1 302.804H-1ZM-1 225.804V302.804H1V225.804H-1ZM12 212.804C4.8203 212.804 -1 218.624 -1 225.804H1C1 219.729 5.92487 214.804 12 214.804V212.804ZM18.7832 212.804H12V214.804H18.7832V212.804ZM19.3015 214.659C20.4952 213.935 21.8434 213.43 23.2969 213.202L22.9873 211.226C21.2718 211.495 19.6772 212.093 18.2648 212.949L19.3015 214.659ZM23.2969 213.202L77.9795 204.633L77.6698 202.657L22.9873 211.226L23.2969 213.202ZM77.9795 204.633C79.2979 204.426 80.6428 204.461 81.9487 204.736L82.3607 202.779C80.8174 202.454 79.2279 202.413 77.6698 202.657L77.9795 204.633ZM81.9487 204.736L105.822 209.762L106.234 207.805L82.3607 202.779L81.9487 204.736ZM105.822 209.762C107.588 210.134 109.412 210.134 111.178 209.762L110.766 207.805C109.272 208.119 107.728 208.119 106.234 207.805L105.822 209.762ZM111.178 209.762L135.051 204.736L134.639 202.779L110.766 207.805L111.178 209.762ZM135.051 204.736C136.357 204.461 137.702 204.426 139.021 204.633L139.33 202.657C137.772 202.413 136.183 202.454 134.639 202.779L135.051 204.736ZM139.021 204.633L193.703 213.202L194.013 211.226L139.33 202.657L139.021 204.633ZM193.703 213.202C195.157 213.43 196.505 213.935 197.699 214.659L198.735 212.949C197.323 212.093 195.728 211.495 194.013 211.226L193.703 213.202ZM205 212.804H198.217V214.804H205V212.804ZM218 225.804C218 218.624 212.18 212.804 205 212.804V214.804C211.075 214.804 216 219.729 216 225.804H218ZM218 302.804V225.804H216V302.804H218ZM205 315.804C212.18 315.804 218 309.983 218 302.804H216C216 308.879 211.075 313.804 205 313.804V315.804ZM192 315.804H205V313.804H192V315.804ZM172 315.804H192V313.804H172V315.804ZM172 313.804H45V315.804H172V313.804ZM25 315.804H45V313.804H25V315.804Z" fill="black" mask="url(#path-8-inside-1_123_10000)"/>
<path d="M80.1891 204.582L107.481 209.394C107.86 209.461 108.024 209.913 107.777 210.208L89.9636 231.437C89.7162 231.732 89.2424 231.648 89.1108 231.286L79.6324 205.245C79.5008 204.883 79.81 204.515 80.1891 204.582Z" fill="white" stroke="black"/>
<path d="M136.15 205.245L126.671 231.287C126.54 231.649 126.066 231.732 125.818 231.437L108.005 210.208C107.757 209.913 107.922 209.461 108.301 209.394L135.593 204.582C135.972 204.515 136.281 204.884 136.15 205.245Z" fill="white" stroke="black"/>
</svg>
