<svg width="264" height="344" viewBox="0 0 264 344" fill="none" xmlns="http://www.w3.org/2000/svg">
<path d="M214 87C214 142.228 177.287 187 132 187C86.7127 187 50 142.228 50 87C50 31.7715 86.7127 0.5 132 0.5C177.287 0.5 214 31.7715 214 87Z" fill="#FFEACC"/>
<rect x="40" y="108" width="31" height="18" rx="9" transform="rotate(-90 40 108)" fill="#FFEACC"/>
<rect x="207" y="108" width="31" height="18" rx="9" transform="rotate(-90 207 108)" fill="#FFEACC"/>
<rect x="104" y="150" width="57" height="74" rx="28.5" fill="#FFEACC"/>
<path d="M188 31.4923C188 42.8099 163.152 48 132.5 48C101.848 48 77 42.8099 77 31.4923C77 20.1747 101.848 11 132.5 11C163.152 11 188 20.1747 188 31.4923Z" fill="#3C3C3C"/>
<path fill-rule="evenodd" clip-rule="evenodd" d="M50 83.3593C66.2126 57.5911 97.0675 39 131.946 39C168.027 39 198.816 58.8961 213.942 86.0516C213.524 31.4136 176.974 0.5 131.946 0.5C87.6635 0.5 51.5794 30.3993 50 83.3593Z" fill="#3C3C3C"/>
<path d="M77 1H122C145.196 1 164 19.804 164 43V43H119C95.804 43 77 24.196 77 1V1Z" fill="#3C3C3C"/>
<mask id="path-8-inside-1_123_10001" fill="white">
<path fill-rule="evenodd" clip-rule="evenodd" d="M49 314.804H36C29.3726 314.804 24 309.431 24 302.804V225.804C24 219.176 29.3726 213.804 36 213.804H42.7832C44.0862 213.014 45.5576 212.463 47.1421 212.214L101.825 203.645C103.263 203.419 104.73 203.457 106.155 203.757L130.028 208.783C131.658 209.127 133.342 209.127 134.972 208.783L158.845 203.757C160.27 203.457 161.737 203.419 163.175 203.645L217.858 212.214C219.442 212.463 220.914 213.014 222.217 213.804H229C235.627 213.804 241 219.176 241 225.804V302.804C241 309.431 235.627 314.804 229 314.804H216H196H69H49Z"/>
</mask>
<path fill-rule="evenodd" clip-rule="evenodd" d="M49 314.804H36C29.3726 314.804 24 309.431 24 302.804V225.804C24 219.176 29.3726 213.804 36 213.804H42.7832C44.0862 213.014 45.5576 212.463 47.1421 212.214L101.825 203.645C103.263 203.419 104.73 203.457 106.155 203.757L130.028 208.783C131.658 209.127 133.342 209.127 134.972 208.783L158.845 203.757C160.27 203.457 161.737 203.419 163.175 203.645L217.858 212.214C219.442 212.463 220.914 213.014 222.217 213.804H229C235.627 213.804 241 219.176 241 225.804V302.804C241 309.431 235.627 314.804 229 314.804H216H196H69H49Z" fill="white"/>
<path d="M42.7832 213.804V214.804H43.0626L43.3015 214.659L42.7832 213.804ZM47.1421 212.214L47.2969 213.202L47.1421 212.214ZM101.825 203.645L101.979 204.633L101.979 204.633L101.825 203.645ZM106.155 203.757L106.361 202.779L106.361 202.779L106.155 203.757ZM130.028 208.783L130.234 207.805L130.234 207.805L130.028 208.783ZM134.972 208.783L134.766 207.805L134.766 207.805L134.972 208.783ZM158.845 203.757L159.051 204.736L159.051 204.736L158.845 203.757ZM163.175 203.645L163.33 202.657L163.33 202.657L163.175 203.645ZM217.858 212.214L218.013 211.226L218.013 211.226L217.858 212.214ZM222.217 213.804L221.699 214.659L221.937 214.804H222.217V213.804ZM36 315.804H49V313.804H36V315.804ZM23 302.804C23 309.983 28.8203 315.804 36 315.804V313.804C29.9249 313.804 25 308.879 25 302.804H23ZM23 225.804V302.804H25V225.804H23ZM36 212.804C28.8203 212.804 23 218.624 23 225.804H25C25 219.729 29.9249 214.804 36 214.804V212.804ZM42.7832 212.804H36V214.804H42.7832V212.804ZM43.3015 214.659C44.4952 213.935 45.8434 213.43 47.2969 213.202L46.9873 211.226C45.2718 211.495 43.6772 212.093 42.2648 212.949L43.3015 214.659ZM47.2969 213.202L101.979 204.633L101.67 202.657L46.9873 211.226L47.2969 213.202ZM101.979 204.633C103.298 204.426 104.643 204.461 105.949 204.736L106.361 202.779C104.817 202.454 103.228 202.413 101.67 202.657L101.979 204.633ZM105.949 204.736L129.822 209.762L130.234 207.805L106.361 202.779L105.949 204.736ZM129.822 209.762C131.588 210.134 133.412 210.134 135.178 209.762L134.766 207.805C133.272 208.119 131.728 208.119 130.234 207.805L129.822 209.762ZM135.178 209.762L159.051 204.736L158.639 202.779L134.766 207.805L135.178 209.762ZM159.051 204.736C160.357 204.461 161.702 204.426 163.021 204.633L163.33 202.657C161.772 202.413 160.183 202.454 158.639 202.779L159.051 204.736ZM163.021 204.633L217.703 213.202L218.013 211.226L163.33 202.657L163.021 204.633ZM217.703 213.202C219.157 213.43 220.505 213.935 221.699 214.659L222.735 212.949C221.323 212.093 219.728 211.495 218.013 211.226L217.703 213.202ZM229 212.804H222.217V214.804H229V212.804ZM242 225.804C242 218.624 236.18 212.804 229 212.804V214.804C235.075 214.804 240 219.729 240 225.804H242ZM242 302.804V225.804H240V302.804H242ZM229 315.804C236.18 315.804 242 309.983 242 302.804H240C240 308.879 235.075 313.804 229 313.804V315.804ZM216 315.804H229V313.804H216V315.804ZM196 315.804H216V313.804H196V315.804ZM196 313.804H69V315.804H196V313.804ZM49 315.804H69V313.804H49V315.804Z" fill="black" mask="url(#path-8-inside-1_123_10001)"/>
<path d="M104.189 204.582L131.481 209.394C131.86 209.461 132.024 209.913 131.777 210.208L113.964 231.437C113.716 231.732 113.242 231.648 113.111 231.286L103.632 205.245C103.501 204.883 103.81 204.515 104.189 204.582Z" fill="white" stroke="black"/>
<path d="M160.15 205.245L150.671 231.287C150.54 231.649 150.066 231.732 149.818 231.437L132.005 210.208C131.757 209.913 131.922 209.461 132.301 209.394L159.593 204.582C159.972 204.515 160.281 204.884 160.15 205.245Z" fill="white" stroke="black"/>
<path d="M24.75 216.5L101.25 200L137.75 315.5L24.75 315.5L24.75 216.5Z" fill="#3C3C3C"/>
<path d="M239.25 216.618L162.75 200.118L126.25 315.618L239.25 315.618L239.25 216.618Z" fill="#3C3C3C"/>
<path d="M136.453 211.689C137.176 211.952 137.343 212.9 136.753 213.394L120.166 227.313C119.576 227.807 118.672 227.478 118.539 226.72L114.779 205.396C114.645 204.638 115.382 204.02 116.105 204.283L136.453 211.689Z" fill="black"/>
<path d="M128.247 213.395C127.657 212.9 127.824 211.952 128.548 211.689L148.895 204.283C149.618 204.02 150.355 204.639 150.222 205.397L146.462 226.721C146.328 227.479 145.424 227.808 144.834 227.313L128.247 213.395Z" fill="black"/>
<rect x="127.882" y="208.441" width="9.28085" height="10.441" rx="4.64043" fill="black"/>
</svg>
