<svg width="40" height="41" viewBox="0 0 40 41" fill="none" xmlns="http://www.w3.org/2000/svg">
<g id="&#240;&#159;&#170;&#180; &#235;&#182;&#132;&#236;&#158;&#172;" clip-path="url(#clip0_101_9881)">
<g id="Group">
<path id="Vector" d="M11.983 14.4705C14.629 15.2835 16.381 17.7895 17.224 19.2935C17.594 19.9535 17.34 20.7805 16.663 21.1195C15.12 21.8915 12.264 22.9825 9.61798 22.1705C6.97198 21.3575 5.21998 18.8515 4.37698 17.3475C4.00698 16.6875 4.26098 15.8605 4.93798 15.5215C6.48098 14.7495 9.33698 13.6585 11.983 14.4705Z" fill="#0A9F60"/>
<path id="Vector_2" d="M27.5169 9.63491C30.1799 8.14291 33.5119 8.65491 35.3549 9.12791C36.1629 9.33491 36.6289 10.1679 36.3839 10.9649C35.8249 12.7829 34.5209 15.8919 31.8579 17.3839C29.1949 18.8759 25.8629 18.3639 24.0199 17.8909C23.2119 17.6839 22.7459 16.8509 22.9909 16.0539C23.5499 14.2359 24.8539 11.1269 27.5169 9.63491Z" fill="#0A9F60"/>
<path id="Vector_3" d="M21.305 6.25027C23.222 10.4143 20.634 15.6963 20.634 15.6963C20.634 15.6963 14.939 14.2263 13.023 10.0623C11.712 7.21327 12.508 3.84227 13.143 1.99627C13.42 1.18927 14.307 0.781268 15.1 1.09527C16.915 1.81427 19.994 3.40227 21.305 6.25027Z" fill="#0A9F60"/>
<path id="Vector_4" d="M20.842 14.5234H19.78V25.4284H20.842V14.5234Z" fill="#0A9F60"/>
<path id="Vector_5" d="M17.0961 19.6615L16.7974 20.6807L20.0994 21.6485L20.3982 20.6294L17.0961 19.6615Z" fill="#0A9F60"/>
<path id="Vector_6" d="M23.2615 16.3865L20.0308 18.4004L20.5931 19.3025L23.8238 17.2886L23.2615 16.3865Z" fill="#0A9F60"/>
<path id="Vector_7" d="M27.3339 39.1643H13.2899C12.7429 39.1643 12.2739 38.7753 12.1729 38.2383L10.0349 26.9023H30.5899L28.4519 38.2383C28.3509 38.7753 27.8799 39.1643 27.3339 39.1643Z" fill="#6E483D"/>
<path id="Vector_8" d="M31.3349 23.9414H9.28793C8.61856 23.9414 8.07593 24.484 8.07593 25.1534V26.8224C8.07593 27.4918 8.61856 28.0344 9.28793 28.0344H31.3349C32.0043 28.0344 32.5469 27.4918 32.5469 26.8224V25.1534C32.5469 24.484 32.0043 23.9414 31.3349 23.9414Z" fill="#86584A"/>
</g>
</g>
<defs>
<clipPath id="clip0_101_9881">
<rect width="40" height="40" fill="white" transform="translate(0 0.5)"/>
</clipPath>
</defs>
</svg>
