<svg width="40" height="40" viewBox="0 0 40 40" fill="none" xmlns="http://www.w3.org/2000/svg">
<g id="&#240;&#159;&#140;&#177; &#236;&#131;&#136;&#236;&#139;&#185;" clip-path="url(#clip0_101_9874)">
<g id="Group">
<path id="Vector" d="M25.954 35.802C22.055 35.802 19 31.476 19 25.952V17.043C19 16.49 19.447 16.043 20 16.043C20.553 16.043 21 16.49 21 17.043V25.952C21 30.207 23.269 33.802 25.954 33.802C26.507 33.802 26.954 34.249 26.954 34.802C26.954 35.355 26.507 35.802 25.954 35.802Z" fill="#23B169"/>
<g id="Group_2">
<path id="Vector_2" d="M1.70605 6.48081C4.90205 4.63981 9.50005 4.73181 13.5591 7.07481C17.6171 9.41781 19.9971 13.3548 20.0001 17.0428C16.8041 18.8838 12.2051 18.7918 8.14706 16.4488C4.08906 14.1058 1.70905 10.1688 1.70605 6.48081Z" fill="#68C76F"/>
<path id="Vector_3" d="M38.294 6.48081C35.098 4.63981 30.5 4.73181 26.441 7.07481C22.383 9.41781 20.003 13.3548 20 17.0428C23.196 18.8838 27.795 18.7918 31.853 16.4488C35.911 14.1058 38.291 10.1688 38.294 6.48081Z" fill="#68C76F"/>
</g>
</g>
</g>
<defs>
<clipPath id="clip0_101_9874">
<rect width="40" height="40" fill="white"/>
</clipPath>
</defs>
</svg>
