<svg width="40" height="41" viewBox="0 0 40 41" fill="none" xmlns="http://www.w3.org/2000/svg">
<g id="&#240;&#159;&#142;&#132; &#237;&#129;&#172;&#235;&#166;&#172;&#236;&#138;&#164;&#235;&#167;&#136;&#236;&#138;&#164; &#237;&#138;&#184;&#235;&#166;&#172;" clip-path="url(#clip0_101_9900)">
<g id="Group">
<g id="Group_2">
<path id="Vector" d="M21.01 9.36621H18.99C18.4327 9.36621 17.981 9.81796 17.981 10.3752V38.4912C17.981 39.0485 18.4327 39.5002 18.99 39.5002H21.01C21.5672 39.5002 22.019 39.0485 22.019 38.4912V10.3752C22.019 9.81796 21.5672 9.36621 21.01 9.36621Z" fill="#86584A"/>
<g id="Group_3">
<path id="Vector_2" d="M18.4879 13.8893L5.38392 30.2313C4.36692 31.4993 5.26992 33.3813 6.89592 33.3813H33.1039C34.7299 33.3813 35.6329 31.4993 34.6159 30.2313L21.5119 13.8893C20.7359 12.9223 19.2629 12.9223 18.4879 13.8893Z" fill="#0A9F60"/>
<path id="Vector_3" d="M18.8259 8.54177L7.9539 22.1008C7.1639 23.0858 7.8649 24.5478 9.1279 24.5478H30.8729C32.1359 24.5478 32.8369 23.0858 32.0469 22.1008L21.1749 8.54177C20.5719 7.79077 19.4279 7.79077 18.8259 8.54177Z" fill="#23B169"/>
<path id="Vector_4" d="M19.127 4.58745L10.613 15.2054C10.026 15.9374 10.547 17.0234 11.486 17.0234H28.514C29.453 17.0234 29.974 15.9374 29.387 15.2054L20.873 4.58745C20.425 4.02945 19.574 4.02945 19.127 4.58745Z" fill="#68C76F"/>
</g>
</g>
<path id="Vector_5" d="M16.321 18.9741C17.2583 18.9741 18.018 18.2143 18.018 17.2771C18.018 16.3399 17.2583 15.5801 16.321 15.5801C15.3838 15.5801 14.624 16.3399 14.624 17.2771C14.624 18.2143 15.3838 18.9741 16.321 18.9741Z" fill="white"/>
<path id="Vector_6" d="M22.5578 23.3549C23.5641 23.3549 24.3798 22.5392 24.3798 21.5329C24.3798 20.5267 23.5641 19.7109 22.5578 19.7109C21.5516 19.7109 20.7358 20.5267 20.7358 21.5329C20.7358 22.5392 21.5516 23.3549 22.5578 23.3549Z" fill="#FFE63B"/>
<path id="Vector_7" d="M23.5669 15.748C24.2799 15.748 24.8579 15.17 24.8579 14.457C24.8579 13.744 24.2799 13.166 23.5669 13.166C22.8539 13.166 22.2759 13.744 22.2759 14.457C22.2759 15.17 22.8539 15.748 23.5669 15.748Z" fill="#EF4452"/>
<path id="Vector_8" d="M14.4819 28.8623C15.1949 28.8623 15.7729 28.2843 15.7729 27.5713C15.7729 26.8583 15.1949 26.2803 14.4819 26.2803C13.7689 26.2803 13.1909 26.8583 13.1909 27.5713C13.1909 28.2843 13.7689 28.8623 14.4819 28.8623Z" fill="#FFB72D"/>
<path id="Vector_9" d="M26.5659 30.6347C27.4048 30.6347 28.0849 29.9546 28.0849 29.1157C28.0849 28.2768 27.4048 27.5967 26.5659 27.5967C25.727 27.5967 25.0469 28.2768 25.0469 29.1157C25.0469 29.9546 25.727 30.6347 26.5659 30.6347Z" fill="white"/>
<path id="Vector_10" d="M20.4539 1.782L21.3699 3.638C21.4439 3.787 21.5859 3.891 21.7509 3.915L23.7989 4.213C24.2139 4.273 24.3799 4.784 24.0799 5.077L22.5979 6.522C22.4789 6.638 22.4239 6.806 22.4519 6.97L22.8019 9.01C22.8729 9.424 22.4389 9.739 22.0669 9.544L20.2349 8.581C20.0879 8.503 19.9109 8.503 19.7639 8.581L17.9319 9.544C17.5609 9.739 17.1269 9.424 17.1969 9.01L17.5469 6.97C17.5749 6.806 17.5209 6.638 17.4009 6.522L15.9189 5.077C15.6189 4.784 15.7839 4.274 16.1999 4.213L18.2479 3.915C18.4129 3.891 18.5549 3.787 18.6289 3.638L19.5449 1.782C19.7309 1.406 20.2669 1.406 20.4529 1.782H20.4539Z" fill="#FFCD00"/>
</g>
</g>
<defs>
<clipPath id="clip0_101_9900">
<rect width="40" height="40" fill="white" transform="translate(0 0.5)"/>
</clipPath>
</defs>
</svg>
