<svg width="40" height="41" viewBox="0 0 40 41" fill="none" xmlns="http://www.w3.org/2000/svg">
<g id="&#240;&#159;&#140;&#178; &#236;&#134;&#140;&#235;&#130;&#152;&#235;&#172;&#180;" clip-path="url(#clip0_101_9892)">
<g id="Group">
<path id="Vector" d="M20.973 9.77246H19.027C18.4896 9.77246 18.054 10.2081 18.054 10.7455V37.8435C18.054 38.3808 18.4896 38.8165 19.027 38.8165H20.973C21.5103 38.8165 21.946 38.3808 21.946 37.8435V10.7455C21.946 10.2081 21.5103 9.77246 20.973 9.77246Z" fill="#86584A"/>
<g id="Group_2">
<path id="Vector_2" d="M18.543 14.1326L5.913 29.8836C4.933 31.1066 5.803 32.9196 7.37 32.9196H32.63C34.197 32.9196 35.067 31.1066 34.087 29.8836L21.457 14.1326C20.709 13.2006 19.291 13.2006 18.543 14.1326Z" fill="#0A9F60"/>
<path id="Vector_3" d="M18.868 8.20218L8.389 21.2702C7.628 22.2202 8.304 23.6282 9.521 23.6282H30.479C31.696 23.6282 32.372 22.2192 31.611 21.2702L21.132 8.20218C20.551 7.47818 19.449 7.47818 18.868 8.20218Z" fill="#23B169"/>
<path id="Vector_4" d="M19.1591 3.22088L10.9531 13.4549C10.3871 14.1609 10.8901 15.2079 11.7941 15.2079H28.2061C29.1111 15.2079 29.6131 14.1609 29.0471 13.4549L20.8411 3.22088C20.4091 2.68288 19.5901 2.68288 19.1591 3.22088Z" fill="#68C76F"/>
</g>
</g>
</g>
<defs>
<clipPath id="clip0_101_9892">
<rect width="40" height="40" fill="white" transform="translate(0 0.5)"/>
</clipPath>
</defs>
</svg>
