<svg width="160" height="160" viewBox="0 0 160 160" fill="none" xmlns="http://www.w3.org/2000/svg">
<g id="&#240;&#159;&#146;&#157; &#235;&#166;&#172;&#235;&#179;&#184; &#235;&#139;&#172;&#235;&#166;&#176; &#237;&#149;&#152;&#237;&#138;&#184;" clip-path="url(#clip0_81_7781)">
<path id="Vector" d="M72.8758 138.432C77.2038 141.292 82.7918 141.292 87.1198 138.432C100.86 129.352 130.804 107.664 143.696 83.3878C160.7 51.3638 140.732 19.4238 114.344 19.4238C99.2998 19.4238 90.2478 27.2838 85.2438 34.0398C82.6078 37.5998 77.3958 37.5998 74.7558 34.0398C69.7518 27.2838 60.6998 19.4238 45.6558 19.4238C19.2678 19.4238 -0.700213 51.3638 16.3038 83.3878C29.1918 107.66 59.1358 129.352 72.8758 138.432Z" fill="#EC4452"/>
<path id="Vector_2" d="M14.3996 79.2559H145.604C147.516 74.8519 148.808 70.4799 149.444 66.2119H10.5596C11.1956 70.4759 12.4876 74.8519 14.3996 79.2559Z" fill="#FFAD00"/>
<g id="Group">
<path id="Vector_3" d="M61.9673 69.2236L59.5713 113.46L68.8993 109.676L77.2873 114.42L79.6833 70.1796L61.9673 69.2236Z" fill="#FFAD00"/>
<path id="Vector_4" d="M88.9319 59.7441L118.476 92.7561L108.832 95.6401L105.26 104.588L75.7119 71.5761L88.9319 59.7441Z" fill="#FFAD00"/>
<path id="Vector_5" d="M78.9797 70.7954C79.4317 72.0634 73.9277 91.2554 60.3957 96.0954C46.8637 100.935 35.0357 67.8674 48.5637 63.0274C62.0917 58.1874 78.5117 69.4994 78.9797 70.7954Z" fill="#FFCD00"/>
<path id="Vector_6" d="M75.8316 71.9197C76.2836 73.1877 92.7156 84.5317 106.248 79.6877C119.78 74.8477 107.948 41.7757 94.4156 46.6197C80.8836 51.4597 75.3676 70.6197 75.8316 71.9197Z" fill="#FFCD00"/>
<path id="Vector_7" d="M84.0875 68.9674C81.8635 62.7514 78.0835 61.0714 74.6235 62.3074C71.1635 63.5434 69.3235 67.2354 71.5475 73.4514C73.7715 79.6674 77.5515 81.3474 81.0115 80.1114C84.4715 78.8754 86.3115 75.1834 84.0875 68.9674Z" fill="#FFE3A0"/>
</g>
</g>
<defs>
<clipPath id="clip0_81_7781">
<rect width="160" height="160" fill="white"/>
</clipPath>
</defs>
</svg>
