<svg width="160" height="160" viewBox="0 0 160 160" fill="none" xmlns="http://www.w3.org/2000/svg">
<g id="&#240;&#159;&#145;&#168;&#240;&#159;&#143;&#187;&#226;&#128;&#141;&#240;&#159;&#146;&#187; &#235;&#130;&#168;&#236;&#158;&#144; &#234;&#184;&#176;&#236;&#136;&#160; &#236;&#160;&#132;&#235;&#172;&#184;&#234;&#176;&#128;: &#237;&#149;&#152;&#236;&#150;&#128; &#237;&#148;&#188;&#235;&#182;&#128;" clip-path="url(#clip0_81_7716)">
<g id="Group">
<path id="Vector" d="M118.184 105.484L98.1521 97.8721C86.4561 93.4281 73.5401 93.4281 61.8441 97.8721L41.8121 105.484C32.1681 109.148 24.1881 116.028 19.1281 124.836C17.0521 128.452 15.7401 132.452 14.7441 136.5L12.1841 146.904C11.7961 148.476 12.9881 149.996 14.6081 149.996H145.388C147.008 149.996 148.2 148.476 147.812 146.904L145.252 136.496C144.256 132.448 142.944 128.448 140.868 124.832C135.812 116.02 127.828 109.144 118.188 105.48L118.184 105.484Z" fill="#5A81FF"/>
<g id="Group_2">
<path id="Vector_2" d="M79.9993 100.12C100.186 100.12 116.551 83.7547 116.551 63.5676C116.551 43.3805 100.186 27.0156 79.9993 27.0156C59.8122 27.0156 43.4473 43.3805 43.4473 63.5676C43.4473 83.7547 59.8122 100.12 79.9993 100.12Z" fill="#FFCCA8"/>
<g id="Group_3">
<path id="Vector_3" d="M46.6437 78.3162C54.7248 78.3162 61.2757 72.1717 61.2757 64.5922C61.2757 57.0126 54.7248 50.8682 46.6437 50.8682C38.5627 50.8682 32.0117 57.0126 32.0117 64.5922C32.0117 72.1717 38.5627 78.3162 46.6437 78.3162Z" fill="#FFCCA8"/>
<path id="Vector_4" d="M113.356 78.3162C121.437 78.3162 127.988 72.1717 127.988 64.5922C127.988 57.0126 121.437 50.8682 113.356 50.8682C105.275 50.8682 98.7236 57.0126 98.7236 64.5922C98.7236 72.1717 105.275 78.3162 113.356 78.3162Z" fill="#FFCCA8"/>
</g>
<path id="Vector_5" d="M121.335 53.0879C121.719 26.8759 98.1512 5.69193 71.1152 10.7559C54.2312 13.9159 40.7192 27.5839 37.7552 44.5039C37.2192 47.5559 37.0153 50.5599 37.1073 53.4879C37.1153 53.7199 37.2992 53.9279 37.5352 53.9279C38.4712 53.9359 40.8592 54.4119 43.1912 58.6479C43.5433 59.2839 44.3992 59.4279 44.8832 58.8839L67.9872 33.0319C67.9872 33.0319 97.2592 56.5399 116.575 55.2559C116.999 55.2279 117.491 55.0799 117.975 54.8719C119.263 54.1479 120.343 52.7999 121.335 53.0879Z" fill="#333333"/>
<g id="Group_4">
<path id="Vector_6" d="M69.7318 66.4678C71.879 66.4678 73.6198 64.3779 73.6198 61.7998C73.6198 59.2218 71.879 57.1318 69.7318 57.1318C67.5845 57.1318 65.8438 59.2218 65.8438 61.7998C65.8438 64.3779 67.5845 66.4678 69.7318 66.4678Z" fill="black"/>
<path id="Vector_7" d="M90.2679 66.4678C92.4152 66.4678 94.1559 64.3779 94.1559 61.7998C94.1559 59.2218 92.4152 57.1318 90.2679 57.1318C88.1206 57.1318 86.3799 59.2218 86.3799 61.7998C86.3799 64.3779 88.1206 66.4678 90.2679 66.4678Z" fill="black"/>
</g>
<path id="Vector_8" d="M84.8395 80.2041C85.7155 80.2041 86.3355 81.0441 86.1035 81.8881C85.3675 84.5681 82.9155 86.5321 80.0035 86.5321C77.0915 86.5321 74.6395 84.5641 73.9035 81.8881C73.6715 81.0441 74.2915 80.2041 75.1675 80.2041H84.8435H84.8395Z" fill="#5C2F17"/>
</g>
<path id="Vector_9" d="M71.2363 94.5117H88.7643V111.148C88.7643 115.984 84.8363 119.912 80.0003 119.912C75.1643 119.912 71.2363 115.984 71.2363 111.148V94.5117Z" fill="#FFCCA8"/>
<path id="Vector_10" d="M136.596 150H23.4045L18.5085 92.0636C18.2885 89.4836 20.3245 87.2676 22.9165 87.2676H137.084C139.672 87.2676 141.708 89.4836 141.492 92.0636L136.596 150Z" fill="#C4C4C4"/>
</g>
</g>
<defs>
<clipPath id="clip0_81_7716">
<rect width="160" height="160" fill="white"/>
</clipPath>
</defs>
</svg>
